<?xml version="1.0" encoding="utf-8"?>
<!-- Svg Vector Icons : http://www.onlinewebfonts.com/icon -->
<!DOCTYPE svg PUBLIC "-//W3C//DTD SVG 1.1//EN" "http://www.w3.org/Graphics/SVG/1.1/DTD/svg11.dtd">
<svg version="1.1" xmlns="http://www.w3.org/2000/svg" xmlns:xlink="http://www.w3.org/1999/xlink" x="0px" y="0px" viewBox="0 0 1000 1000" enable-background="new 0 0 1000 1000" xml:space="preserve">
<metadata> Svg Vector Icons : http://www.onlinewebfonts.com/icon </metadata>
<g><path d="M500,10C229.4,10,10,229.4,10,500c0,270.6,219.4,490,490,490c270.6,0,490-219.4,490-490C990,229.4,770.6,10,500,10z M503.3,976.9c-144.9,0-274.5-65.1-361.4-167.5c15.7-122.1,109.8-223.2,236.7-263C325.8,503.8,291.4,434,291.4,355c0-129.7,92.7-234.8,207-234.8c114.3,0,207,105.1,207,234.8c0,79-34.4,148.9-87.2,191.4c130.4,40.8,226,146.4,237.8,273C769.3,916.1,643.4,976.9,503.3,976.9z"/></g>
</svg>